<?xml version="1.0" standalone="no"?>
<!DOCTYPE svg PUBLIC "-//W3C//DTD SVG 20010904//EN"
 "http://www.w3.org/TR/2001/REC-SVG-20010904/DTD/svg10.dtd">
<svg version="1.0" xmlns="http://www.w3.org/2000/svg"
 width="250.000000pt" height="250.000000pt" viewBox="0 0 250.000000 250.000000"
 preserveAspectRatio="xMidYMid meet">

<g transform="translate(0.000000,250.000000) scale(0.100000,-0.100000)"
fill="#000000" stroke="none">
<path d="M1217 2394 c-10 -13 -24 -24 -32 -24 -8 0 -15 -6 -15 -13 0 -8 -11
-19 -24 -26 -13 -7 -37 -31 -52 -52 -33 -44 -40 -47 -47 -19 -3 11 -17 22 -33
25 -16 3 -41 12 -56 19 -24 13 -27 12 -31 -5 -6 -23 -53 -42 -84 -34 -13 3
-23 2 -23 -3 0 -4 -6 -16 -13 -26 -12 -16 -18 -16 -74 -5 -110 23 -215 -19
-259 -102 -28 -56 -11 -143 36 -176 11 -8 20 -21 20 -29 0 -12 -8 -13 -34 -8
-51 9 -135 -19 -173 -58 -39 -40 -72 -112 -73 -155 0 -41 17 -126 37 -179 14
-38 13 -44 -5 -80 -31 -62 -46 -165 -39 -275 5 -88 10 -107 50 -191 61 -130
140 -215 251 -267 136 -65 127 -64 705 -62 547 2 583 5 694 48 72 28 166 101
201 157 74 116 114 253 109 371 -3 52 -24 158 -41 207 -16 45 -15 50 7 139 38
150 12 243 -86 308 -44 30 -91 42 -78 21 3 -5 1 -10 -4 -10 -6 0 -11 8 -11 18
0 14 -2 15 -10 2 -6 -9 -5 -17 3 -22 8 -5 6 -12 -8 -22 -11 -9 -24 -15 -30
-16 -5 0 -3 5 5 10 8 5 16 22 17 37 1 15 -1 23 -5 18 -4 -6 -22 -11 -41 -12
-24 -1 -30 1 -20 8 12 8 12 10 -1 18 -12 9 -12 11 3 16 28 11 57 69 57 114 0
95 -81 171 -185 173 -73 1 -102 -10 -116 -45 -8 -18 -12 -36 -11 -41 2 -5 -4
-3 -13 4 -13 11 -16 11 -13 0 2 -7 -2 -14 -8 -17 -7 -2 -10 6 -8 24 4 24 3 25
-5 8 -9 -18 -10 -17 -11 10 -2 18 -4 23 -7 13 -5 -21 -23 -24 -23 -5 0 8 -3 8
-8 2 -8 -13 -22 -13 -41 -1 -11 7 -13 5 -8 -7 5 -14 3 -15 -13 -5 -10 7 -16
16 -14 20 11 17 -8 29 -23 16 -12 -9 -10 -1 5 28 19 37 45 60 64 56 4 -1 5 5
1 13 -4 13 -11 11 -38 -9 -22 -17 -35 -22 -42 -15 -7 7 -18 1 -33 -18 l-22
-28 -15 22 c-8 12 -26 34 -39 50 -13 15 -24 33 -24 38 0 6 -5 3 -10 -5 -8 -13
-11 -12 -24 5 -9 11 -16 16 -16 11 0 -5 -10 -1 -21 10 -22 19 -22 19 -10 -3 6
-12 16 -25 21 -28 17 -10 11 -48 -11 -71 -20 -21 -22 -21 -41 -6 -34 29 -38
46 -23 102 8 30 13 55 12 56 -1 1 -10 -9 -20 -22z m-32 -137 c9 -15 14 -27 11
-27 -12 0 -46 65 -45 85 1 16 2 15 9 -6 4 -14 15 -38 25 -52z m45 -16 c-1 -10
-6 -7 -15 9 -19 33 -18 50 0 26 8 -11 15 -27 15 -35z m129 30 c-3 -37 4 -44
16 -16 12 25 14 26 15 9 0 -12 -7 -27 -15 -34 -8 -7 -15 -9 -15 -5 0 4 -8 1
-17 -6 -15 -11 -16 -11 -5 1 16 18 16 38 0 22 -20 -20 -32 -13 -13 8 10 11 15
23 12 27 -4 3 -7 2 -7 -4 0 -6 -12 -19 -27 -28 l-28 -18 28 30 c30 32 59 39
56 14z m132 -14 c-6 -6 -11 -21 -11 -34 0 -13 -5 -23 -11 -23 -5 0 -7 -5 -3
-12 4 -7 3 -8 -4 -4 -7 4 -12 16 -12 27 0 26 30 70 42 63 6 -4 6 -10 -1 -17z
m-341 -22 c13 -14 21 -25 18 -25 -2 0 -15 11 -28 25 -13 14 -21 25 -18 25 2 0
15 -11 28 -25z m-158 -37 c-6 -6 -7 0 -4 19 5 21 7 23 10 9 2 -10 0 -22 -6
-28z m31 17 c-7 -21 -13 -19 -13 6 0 11 4 18 10 14 5 -3 7 -12 3 -20z m869
-10 c28 -6 66 -35 83 -63 l16 -27 -25 28 c-14 16 -31 25 -36 22 -6 -3 -11 2
-11 12 -1 17 -2 17 -6 1 -2 -10 -6 -18 -8 -18 -11 0 -54 28 -49 32 3 4 0 9 -7
14 -8 4 -10 3 -5 -4 4 -7 2 -12 -3 -12 -6 0 -14 -1 -18 -2 -3 -2 -7 7 -8 18
-1 20 1 21 29 12 17 -5 39 -11 48 -13z m-922 11 c0 -3 -4 -8 -10 -11 -5 -3
-10 -1 -10 4 0 6 5 11 10 11 6 0 10 -2 10 -4z m435 -15 c-3 -6 -11 -11 -16
-11 -5 0 -4 6 3 14 14 16 24 13 13 -3z m401 -4 c2 -18 -18 -21 -51 -7 -14 6
-16 9 -5 10 8 2 18 2 23 1 4 0 7 4 7 10 0 17 23 5 26 -14z m-509 -3 c-3 -3
-12 -4 -19 -1 -8 3 -5 6 6 6 11 1 17 -2 13 -5z m137 -56 c7 -32 0 -35 -25 -12
-14 13 -16 20 -6 35 13 21 22 15 31 -23z m416 32 c0 -5 -12 -10 -27 -9 l-28 1
25 8 c14 4 26 8 28 9 1 1 2 -3 2 -9z m-553 -6 c-3 -3 -12 -4 -19 -1 -8 3 -5 6
6 6 11 1 17 -2 13 -5z m-203 -13 c7 -10 -22 -37 -30 -28 -9 8 3 37 15 37 5 0
12 -4 15 -9z m850 -10 c4 -5 -3 -7 -14 -4 -23 6 -26 13 -6 13 8 0 17 -4 20 -9z
m-624 -15 c-7 -7 -13 -7 -20 0 -6 6 -3 10 10 10 13 0 16 -4 10 -10z m595 -6
c10 -11 16 -20 13 -20 -3 0 -13 9 -23 20 -10 11 -16 20 -13 20 3 0 13 -9 23
-20z m-691 -22 c-4 -5 -9 -7 -12 -4 -3 4 -17 -4 -31 -16 l-26 -23 23 26 c20
24 58 37 46 17z m177 -5 c13 -16 12 -17 -3 -4 -10 7 -18 15 -18 17 0 8 8 3 21
-13z m-81 -56 c16 -29 30 -61 29 -72 0 -12 -5 -4 -13 18 -8 21 -26 56 -41 79
-15 22 -22 37 -16 33 6 -3 25 -30 41 -58z m21 46 c13 -16 12 -17 -3 -4 -17 13
-22 21 -14 21 2 0 10 -8 17 -17z m8 -48 c11 -19 17 -35 13 -35 -4 0 -17 18
-29 40 -26 49 -13 44 16 -5z m457 14 c3 -6 -5 -3 -20 6 -14 10 -26 19 -26 22
0 7 39 -17 46 -28z m141 -1 c-3 -8 -6 -5 -6 6 -1 11 2 17 5 13 3 -3 4 -12 1
-19z m-507 -32 c0 -12 -5 -7 -19 24 -11 24 -11 24 3 6 9 -11 16 -24 16 -30z
m-164 -1 c-3 -8 0 -15 6 -15 6 0 9 -3 5 -6 -10 -11 -26 6 -20 21 3 8 7 15 10
15 3 0 3 -7 -1 -15z m657 -2 c-5 -12 -3 -14 7 -8 8 5 11 4 6 -3 -4 -6 -13 -9
-20 -6 -8 3 -17 1 -21 -5 -3 -6 -30 -11 -58 -10 -47 1 -49 2 -22 10 17 5 38 6
49 3 12 -4 16 -2 12 5 -4 6 -1 9 7 5 8 -3 20 2 27 11 16 20 21 19 13 -2z
m-623 -13 c6 -11 8 -20 6 -20 -3 0 -10 9 -16 20 -6 11 -8 20 -6 20 3 0 10 -9
16 -20z m343 13 c-7 -2 -19 -2 -25 0 -7 3 -2 5 12 5 14 0 19 -2 13 -5z m-263
-51 c0 -15 2 -15 10 -2 5 8 10 11 10 5 0 -5 -4 -16 -9 -23 -6 -11 -10 -10 -16
5 -12 28 -14 44 -4 37 5 -3 9 -13 9 -22z m391 10 c-7 -2 -18 1 -23 6 -8 8 -4
9 13 5 13 -4 18 -8 10 -11z m-481 -3 c0 -5 4 -8 9 -4 5 3 12 1 15 -4 8 -12
-14 -8 -39 7 -18 10 -18 11 -2 12 9 0 17 -5 17 -11z m15 -57 c-3 -3 -11 0 -18
7 -9 10 -8 11 6 5 10 -3 15 -9 12 -12z m32 -24 c-3 -7 -5 -2 -5 12 0 14 2 19
5 13 2 -7 2 -19 0 -25z m546 25 c-7 -2 -19 -2 -25 0 -7 3 -2 5 12 5 14 0 19
-2 13 -5z m-608 -23 c3 -5 -4 -6 -15 -3 -11 3 -22 9 -25 13 -3 5 4 6 15 3 11
-3 22 -9 25 -13z m105 10 c8 -5 12 -11 10 -14 -3 -2 -14 2 -24 10 -22 15 -10
19 14 4z m354 -19 c-2 -3 -12 3 -22 13 -16 17 -16 18 5 5 12 -7 20 -15 17 -18z
m176 9 c-8 -5 -19 -10 -25 -10 -5 0 -3 5 5 10 8 5 20 10 25 10 6 0 3 -5 -5
-10z m80 -10 c0 -4 -7 -7 -15 -6 -23 3 -26 12 -5 13 11 1 20 -2 20 -7z m103
-4 c3 -8 0 -17 -7 -19 -10 -4 -12 1 -9 14 6 23 9 24 16 5z m-836 -2 c-3 -3
-12 -4 -19 -1 -8 3 -5 6 6 6 11 1 17 -2 13 -5z m612 2 c-2 -2 -22 -6 -44 -9
-27 -4 -35 -3 -25 3 14 9 79 15 69 6z m89 -30 c12 -3 12 -4 -3 -3 -11 1 -20 9
-21 17 0 8 1 10 3 3 2 -6 12 -14 21 -17z m-200 -10 c-15 -13 -24 -28 -20 -32
4 -5 -2 -2 -13 6 -30 21 -32 24 -13 17 10 -3 27 2 40 13 33 28 38 24 6 -4z
m152 18 c0 -8 -19 -13 -24 -6 -3 5 1 9 9 9 8 0 15 -2 15 -3z m-50 -18 c0 -2
-7 -7 -16 -10 -8 -3 -12 -2 -9 4 6 10 25 14 25 6z m50 -11 c-14 -8 -29 -14
-35 -14 -5 0 1 6 15 14 14 8 30 14 35 14 6 0 -1 -6 -15 -14z m-524 -4 c-3 -5
-16 -11 -28 -14 -22 -6 -22 -5 -4 8 22 17 40 20 32 6z m473 -14 c-2 -2 -17
-11 -34 -21 l-30 -17 24 20 c13 12 28 21 34 21 6 0 8 -1 6 -3z m-90 -51 c-2
-2 -20 -6 -39 -10 -25 -4 -31 -3 -20 4 14 9 69 15 59 6z m-499 -22 c0 -2 -7
-4 -15 -4 -8 0 -15 4 -15 10 0 5 7 7 15 4 8 -4 15 -8 15 -10z m87 10 c-3 -3
-12 -4 -19 -1 -8 3 -5 6 6 6 11 1 17 -2 13 -5z m-42 -13 c-3 -6 19 -18 50 -27
73 -23 63 -30 -11 -8 -74 21 -82 26 -58 35 26 10 26 10 19 0z m98 -73 c15 -6
27 -15 27 -21 0 -6 9 -21 21 -33 l21 -22 -57 -13 c-31 -7 -67 -21 -80 -31 -20
-16 -22 -25 -21 -98 1 -77 0 -81 -19 -75 -11 3 -40 8 -65 11 l-45 6 3 57 c4
80 -11 102 -83 124 -33 11 -67 21 -75 23 -9 3 6 17 39 35 35 20 51 35 47 45
-4 9 1 14 15 14 11 0 17 -5 14 -10 -4 -6 8 -27 25 -47 17 -19 36 -46 42 -59
13 -27 31 -33 21 -7 -4 11 -3 14 6 9 6 -4 10 -4 9 1 -2 4 2 10 7 12 6 2 16 17
24 33 7 15 21 28 30 28 13 0 13 2 2 9 -11 7 -11 9 0 14 11 4 11 6 1 6 -7 1
-15 -6 -18 -14 -6 -14 -8 -13 -19 1 -8 12 -14 14 -19 6 -4 -7 -12 -12 -17 -12
-6 0 -7 5 -3 12 5 8 2 9 -10 5 -10 -4 -15 -3 -11 4 4 5 16 7 27 3 14 -4 18 -2
14 5 -10 15 7 14 23 -1 10 -11 11 -10 6 4 -7 16 -4 16 42 2 26 -9 60 -20 76
-26z m397 23 c-13 -25 -27 -34 -34 -22 -4 5 4 17 16 25 29 20 31 20 18 -3z
m-620 -6 c7 -9 8 -15 2 -15 -5 0 -12 7 -16 15 -3 8 -4 15 -2 15 2 0 9 -7 16
-15z m905 -5 c-3 -5 -16 -15 -28 -21 -19 -9 -19 -8 3 10 28 23 34 26 25 11z
m-1223 -37 c28 -30 53 -73 42 -73 -3 0 -15 12 -27 26 -24 31 -73 54 -119 55
-28 0 -30 2 -13 9 43 18 90 11 117 -17z m898 12 c41 -21 38 -25 -11 -14 -60
14 -115 -5 -160 -53 -41 -45 -58 -39 -29 10 40 66 133 92 200 57z m103 -12
c-13 -2 -33 -2 -45 0 -13 2 -3 4 22 4 25 0 35 -2 23 -4z m-583 -6 c0 -2 -13
-16 -29 -31 -24 -23 -29 -25 -35 -11 -3 9 -2 14 2 11 4 -2 19 4 32 15 25 19
30 21 30 16z m585 -57 c-3 -5 -11 -10 -16 -10 -6 0 -7 5 -4 10 3 6 11 10 16
10 6 0 7 -4 4 -10z m-1095 -10 c20 -6 15 -8 -25 -9 -36 0 -46 2 -35 9 17 11
25 11 60 0z m973 -2 c15 -11 9 -13 -35 -13 -29 0 -66 -4 -83 -8 -25 -6 -23 -4
10 12 47 23 85 26 108 9z m-698 -6 c17 -12 16 -32 -3 -32 -9 0 -23 9 -30 20
-10 17 -10 20 5 20 10 0 23 -4 28 -8z m425 -2 c0 -5 -7 -10 -16 -10 -8 0 -13
-4 -10 -9 3 -5 -8 -11 -26 -13 -28 -5 -29 -4 -13 9 14 10 15 13 4 14 -19 1 20
17 44 18 9 1 17 -3 17 -9z m413 -33 c18 15 20 15 8 1 -7 -9 -10 -22 -6 -28 3
-5 1 -10 -5 -10 -13 0 -60 49 -60 63 0 5 10 -2 21 -17 21 -26 22 -27 42 -9z
m-164 -3 c22 -5 37 -16 47 -36 9 -17 13 -32 10 -36 -3 -3 -6 0 -6 6 0 7 -9 21
-20 32 -16 16 -35 20 -87 21 -60 2 -64 3 -28 9 22 4 43 8 46 9 4 0 21 -2 38
-5z m-1093 -32 c-17 -16 -18 -16 -5 5 7 12 15 20 18 17 3 -2 -3 -12 -13 -22z
m137 18 c-18 -4 -40 -13 -48 -20 -8 -7 -15 -8 -15 -3 0 19 25 33 60 32 l35 -1
-32 -8z m292 0 c8 -13 -5 -13 -25 0 -13 8 -13 10 2 10 9 0 20 -4 23 -10z m382
3 c-9 -2 -15 -9 -12 -14 3 -5 -1 -6 -9 -3 -22 8 -10 24 17 23 17 -1 18 -2 4
-6z m-662 -63 c-35 -37 -30 -38 15 -5 19 14 38 25 44 25 5 0 -13 -16 -40 -35
-52 -38 -70 -40 -88 -13 -13 21 -8 26 41 43 56 20 60 18 28 -15z m870 20 c13
0 38 -12 57 -27 25 -21 28 -22 14 -5 -11 12 -17 25 -13 28 8 8 47 -14 47 -27
0 -6 6 -7 13 -4 6 4 3 -1 -8 -10 -25 -20 -53 -14 -120 27 -27 16 -42 27 -32
24 10 -3 29 -6 42 -6z m-578 -16 c-3 -3 -12 -4 -19 -1 -8 3 -5 6 6 6 11 1 17
-2 13 -5z m381 -1 c-10 -2 -28 -2 -40 0 -13 2 -5 4 17 4 22 1 32 -1 23 -4z
m268 -140 c4 4 3 7 -3 7 -6 0 -37 30 -69 68 -54 62 -45 59 33 -12 18 -16 39
-31 47 -32 15 -2 66 -34 66 -41 0 -3 -16 4 -36 16 -19 12 -32 16 -29 11 15
-24 69 -41 137 -42 40 -1 64 -4 53 -6 -11 -2 -56 -20 -99 -39 -90 -40 -173
-47 -238 -20 -36 15 -37 18 -31 49 10 46 5 118 -12 150 -3 7 0 5 9 -5 8 -11
13 -24 12 -30 -2 -7 -1 -9 1 -4 3 4 9 4 15 1 5 -4 5 4 -2 16 -8 15 -8 20 -1
16 15 -10 14 7 -1 25 -7 7 22 -20 64 -60 43 -41 81 -72 84 -68z m-846 108 c-5
-11 -15 -23 -20 -26 -6 -3 -10 -11 -10 -16 0 -6 5 -7 12 -3 7 4 1 -8 -13 -27
-13 -19 -25 -37 -25 -41 -1 -5 -2 -9 -4 -10 -1 -2 -3 -12 -5 -23 -5 -26 -35
-46 -58 -39 -12 4 -17 2 -13 -4 11 -18 108 -11 135 10 27 21 40 16 21 -7 -25
-30 -86 -38 -163 -20 -85 19 -170 45 -164 51 2 2 24 -3 48 -11 60 -22 103 -21
136 0 24 16 26 16 14 2 -8 -10 -9 -17 -3 -17 12 0 25 18 28 38 3 16 0 15 -46
-8 -22 -11 -45 -20 -52 -20 -7 0 6 9 29 20 46 20 113 70 113 83 0 4 -17 -6
-38 -23 -40 -31 -129 -70 -160 -69 -9 0 11 10 45 23 81 30 102 45 155 106 47
54 54 60 38 31z m220 2 c0 -14 -34 -43 -51 -43 -27 0 -35 21 -14 37 19 13 65
18 65 6z m390 -10 c11 -10 -20 -38 -46 -41 -22 -2 -37 5 -59 29 l-30 31 65 -7
c36 -4 67 -9 70 -12z m-680 -38 c-36 -37 -77 -60 -125 -69 -23 -5 -20 -2 10 9
22 8 63 33 90 55 62 49 69 51 25 5z m579 6 c8 -14 7 -22 -6 -32 -11 -9 -14
-10 -9 -2 4 7 2 22 -4 33 -7 13 -7 20 -1 20 6 0 15 -9 20 -19z m517 -19 c-10
-2 -22 0 -28 6 -6 6 0 7 19 4 21 -5 23 -7 9 -10z m67 11 c-7 -2 -21 -2 -30 0
-10 3 -4 5 12 5 17 0 24 -2 18 -5z m-1090 -18 c-3 -9 -8 -14 -10 -11 -3 3 -2
9 2 15 9 16 15 13 8 -4z m413 0 c23 -18 22 -18 -41 0 -48 13 -49 14 -14 14 19
1 44 -6 55 -14z m0 -25 c43 -17 24 -19 -41 -5 -52 12 -55 13 -23 14 20 1 49
-4 64 -9z m-445 -45 c-26 -44 -26 -52 -3 -34 14 11 15 11 5 -1 -7 -8 -19 -15
-27 -16 -11 -1 -8 11 12 46 15 27 29 47 31 45 2 -2 -6 -20 -18 -40z m443 19
c25 -10 19 -26 -6 -18 -13 4 -39 11 -58 15 l-35 7 42 1 c23 0 48 -2 57 -5z
m93 -38 c-10 -19 -11 -20 -15 -3 -2 10 -1 26 3 35 5 14 8 14 15 2 5 -8 4 -22
-3 -34z m102 -28 c70 -129 198 -215 241 -163 10 12 9 23 -4 55 -13 34 -14 40
-1 40 23 0 45 -42 45 -88 0 -26 -4 -41 -10 -37 -5 3 -10 0 -10 -8 0 -32 -74
-36 -135 -8 -49 22 -114 86 -166 163 -43 63 -45 68 -27 86 21 21 40 9 67 -40z
m-182 28 c12 -12 -2 -12 -57 1 l-55 13 53 -4 c29 -2 55 -6 59 -10z m-249 -30
c5 -40 -41 -127 -93 -175 -43 -40 -46 -41 -112 -40 -78 1 -119 11 -116 27 2 7
-1 12 -6 12 -11 0 -5 54 9 80 6 11 15 20 20 20 13 0 13 -27 1 -35 -8 -4 -9
-29 -2 -66 3 -15 58 -16 94 -2 42 17 123 107 158 174 22 45 42 47 47 5z m249
0 c12 -12 -3 -12 -52 1 l-50 13 48 -4 c26 -2 51 -6 54 -10z m0 -30 c12 -12 -2
-12 -57 1 l-55 13 53 -4 c29 -2 55 -6 59 -10z m-17 -26 c12 -8 11 -10 -5 -9
-11 1 -33 5 -50 9 l-30 8 35 1 c19 0 42 -4 50 -9z m0 -30 c25 -15 7 -17 -40
-4 l-45 12 35 1 c19 0 42 -3 50 -9z m0 -30 c12 -8 11 -10 -5 -9 -11 1 -31 5
-45 9 -24 8 -24 8 5 9 17 0 37 -4 45 -9z m0 -30 c12 -8 11 -10 -5 -9 -11 1
-31 5 -45 9 -24 8 -24 8 5 9 17 0 37 -4 45 -9z m-12 -27 c-10 -2 -26 -2 -35 0
-10 3 -2 5 17 5 19 0 27 -2 18 -5z m2 -23 c12 -8 11 -10 -7 -10 -12 0 -25 5
-28 10 -8 13 15 13 35 0z m-2 -27 c-10 -2 -26 -2 -35 0 -10 3 -2 5 17 5 19 0
27 -2 18 -5z m0 -30 c-10 -2 -26 -2 -35 0 -10 3 -2 5 17 5 19 0 27 -2 18 -5z
m233 -4 c25 -13 14 -32 -14 -23 -28 8 -30 11 -22 23 8 14 11 14 36 0z m-426
-12 c10 -8 15 -19 11 -25 -9 -15 -56 6 -56 25 0 17 21 17 45 0z m203 -14 c-10
-2 -26 -2 -35 0 -10 3 -2 5 17 5 19 0 27 -2 18 -5z m7 -23 c-3 -5 -16 -10 -28
-10 -18 0 -19 2 -7 10 20 13 43 13 35 0z m24 -17 c-4 -24 7 -35 64 -61 105
-49 178 -48 233 3 31 29 42 31 50 10 15 -38 -70 -85 -154 -86 -64 -1 -126 17
-177 52 -27 19 -31 26 -22 38 10 12 8 13 -13 7 -24 -7 -24 -6 -6 8 20 16 20
16 0 16 -16 0 -17 2 -4 10 18 12 30 13 29 3z m-409 -39 c4 -20 12 -30 28 -32
24 -4 29 -17 10 -25 -21 -7 -56 10 -74 38 -13 20 -14 28 -4 40 18 22 34 13 40
-21z m108 -21 c-25 -29 -48 -40 -48 -23 0 6 5 10 11 10 6 0 20 11 31 26 11 14
23 23 25 20 3 -3 -5 -18 -19 -33z"/>
<path d="M1605 1375 c1 -25 65 -144 65 -122 0 4 17 -2 37 -13 57 -30 63 -24
11 10 -41 28 -79 68 -103 110 -4 8 24 -15 62 -52 39 -38 77 -68 85 -68 7 1 0
8 -15 16 -15 8 -25 19 -22 25 4 5 2 8 -3 7 -6 -2 -34 24 -64 57 -53 58 -55 59
-53 30z"/>
<path d="M1586 1338 c7 -23 14 -38 49 -95 16 -27 26 -33 54 -33 19 0 32 1 30
3 -2 1 -15 11 -28 22 -21 18 -24 18 -18 3 12 -34 -1 -18 -43 52 -44 73 -56 86
-44 48z"/>
<path d="M1581 1284 c-1 -12 8 -32 19 -45 l21 -24 -14 30 c-8 17 -17 37 -20
45 -4 10 -6 8 -6 -6z"/>
<path d="M1750 1270 c8 -5 24 -10 34 -10 26 0 18 6 -19 14 -22 5 -26 4 -15 -4z"/>
<path d="M1061 957 c2 -1 13 -9 24 -17 19 -14 19 -14 6 3 -7 9 -18 17 -24 17
-6 0 -8 -1 -6 -3z"/>
<path d="M1607 2239 c4 -16 8 -17 14 -7 5 7 9 9 9 4 0 -5 7 -3 15 4 8 6 19 9
25 5 5 -3 10 -1 10 4 0 15 -23 14 -38 -1 -9 -9 -12 -9 -12 0 0 7 -6 12 -14 12
-9 0 -12 -7 -9 -21z"/>
</g>
</svg>
